<svg xmlns="http://www.w3.org/2000/svg" xmlns:xlink="http://www.w3.org/1999/xlink" aria-hidden="true" focusable="false" role="img" viewBox="0 0 24 24" class="" fill="none" stroke-width="2" stroke="currentColor" stroke-linecap="round" stroke-linejoin="round"><g stroke-width="1.5"><path stroke="none" d="M0 0h24v24H0z" fill="none"></path><path d="M12 3l-4 7h8z"></path><path d="M17 17m-3 0a3 3 0 1 0 6 0a3 3 0 1 0 -6 0"></path><path d="M4 14m0 1a1 1 0 0 1 1 -1h4a1 1 0 0 1 1 1v4a1 1 0 0 1 -1 1h-4a1 1 0 0 1 -1 -1z"></path></g></svg>
