<svg xmlns="http://www.w3.org/2000/svg" xmlns:xlink="http://www.w3.org/1999/xlink" aria-hidden="true" focusable="false" role="img" viewBox="0 0 1024 1024" class=""  stroke="currentColor" stroke-linecap="round" stroke-linejoin="round" fill="currentColor"><path d="M935.46496 517.29408c-139.40736 0-278.82496 0-418.24256 0 0 139.40736 0 278.8352 0 418.24256-104.5504 0-209.13152 0-313.68192 0 0-150.016 0.36864-417.4848 0.36864-417.4848L98.78528 517.5296l0.19456-313.91744 103.936 0.26624 0.2048-105.54368L517.2224 99.04128l-0.54272 104.9088 418.78528-0.34816C935.46496 203.61216 935.46496 412.74368 935.46496 517.29408zM203.54048 255.88736c-17.42848 0-52.28544 0-52.28544 0l0 209.94048c0 0 43.56096-0.8192 52.28544-0.8192C203.54048 395.30496 203.54048 325.59104 203.54048 255.88736zM465.27488 308.69504l0.48128-52.80768L360.1408 255.68256l0.22528-52.0704 105.37984 0.8192-0.2048-53.62688-209.73568 0.53248c0 0 0 487.97696 0 731.93472 69.70368 0 139.40736 0 209.12128 0 0-34.85696 0-104.57088 0-104.57088l-104.12032-0.67584-0.44032-51.58912 104.84736 0.31744-0.28672-52.61312-104.33536 0.21504-0.22528-51.67104 104.32512-0.12288-0.58368-52.98176-103.95648-0.37888 0.21504-51.89632 104.42752-0.57344 0.14336-50.8928L361.1648 465.17248l-0.78848-52.43904L465.6128 412.16l0.14336-51.712-104.9088 0.67584-0.47104-52.95104L465.27488 308.69504zM883.17952 255.88736c-121.96864 0-365.95712 0-365.95712 0l0.57344 208.80384 51.712 0.31744-0.75776-104.96 53.05344 0.39936-0.45056 103.9872 52.71552 0.57344 0.6656-104.59136 51.6096 0.03072-0.29696 105.07264 52.5824-0.512-0.59392-104.67328 53.68832 0.11264-0.5632 105.41056 52.0192-0.84992C883.17952 465.00864 883.17952 325.59104 883.17952 255.88736z" fill="currentColor"></path></svg>
